<?xml version="1.0" encoding="utf-8"?>
<!-- Generator: Adobe Illustrator 19.1.0, SVG Export Plug-In . SVG Version: 6.00 Build 0)  -->
<svg version="1.1" id="Layer_1" xmlns="http://www.w3.org/2000/svg" xmlns:xlink="http://www.w3.org/1999/xlink" x="0px" y="0px"
	 viewBox="0 0 250 250" style="enable-background:new 0 0 250 250;" xml:space="preserve">
<style type="text/css">
	.st0{fill:#1D7CED;}
	.st1{fill:#FFFFFF;}
</style>
<circle class="st0" cx="125" cy="125" r="125"/>
<g>
	<path class="st1" d="M185.5,104.7c2.7,1.9,4.8,4.9,6.4,8.8c1.6,3.9,2.4,8.1,2.4,12.6c0,4.7-0.9,9.1-2.7,13.2
		c-1.8,4.1-4.5,7.3-8,9.6l-95.4,61c-0.9,0.5-1.6,0.7-2.1,0.7c-2.6,0-5-2.3-7.2-6.8c-2.2-4.5-3.3-9.2-3.3-14c0-5.9,1.7-10,5.2-12.1
		l82.6-51.7L80.6,71.8c-2.7-1.7-4-5.4-4-11.2c0-4.9,0.9-9.7,2.8-14.3c1.9-4.6,4-6.9,6.3-6.9c0.6,0,1.3,0.2,2,0.5L185.5,104.7z"/>
</g>
</svg>
